<svg id="Layer_1" data-name="Layer 1" xmlns="http://www.w3.org/2000/svg" viewBox="0 0 229 220"><defs><style>.cls-1{fill:#b8b8b8;}</style></defs><title>empty-box</title><path class="cls-1" d="M118.31,221.33h-3a44.13,44.13,0,0,0-5.52-3.9Q71.93,198.37,34,179.51c-3.49-1.72-4.8-3.8-4.73-7.69.23-12.65,0-25.31.15-38,0-2.9-.87-4.46-3.48-5.71-5.83-2.81-11.52-5.93-17.24-9-5.34-2.84-5.45-3.65-1.48-8.41L30,83.37.31,55.33v-3l90-51h2l26,35.65c5.34-10,10.35-19.17,15.1-28.45,1.91-3.73,3.75-4.58,7.74-2.4C157.42,15.05,174,23.55,190.36,32.3c13,6.94,26,14,38.95,21v3l-27.5,26.13c8.4,10.05,16.35,19.68,24.45,29.17,2.63,3.08,2.43,5.06-1.27,6.93-6.09,3.07-12,6.49-18.1,9.5-2.61,1.29-3.5,2.91-3.47,5.8.15,13,0,26,.15,39,0,3.33-1.13,5-4,6.49q-37.87,19-75.59,38.31A58.56,58.56,0,0,0,118.31,221.33ZM192.7,84.11c-1-.68-1.68-1.16-2.37-1.52-23-12-46-24-69.07-35.79a8.07,8.07,0,0,0-6.3.11C91.07,58.57,67.28,70.43,43.48,82.26c-1.06.53-2,1.24-3.53,2.18,25.18,13.24,49.72,26.2,74.36,38.94,1.35.7,3.85.14,5.39-.66q35-18.18,69.77-36.61C190.46,85.59,191.38,84.93,192.7,84.11ZM7.79,55C16,62.54,23.72,69.54,31.2,76.84c2.5,2.45,4.4,2.94,7.64,1.3,23.56-11.9,47.22-23.58,70.84-35.35,1.26-.63,2.45-1.39,4-2.25L90,8.22Zm104.52,74L33.9,87.77,11.78,114.22l83.46,44.17C100.91,148.63,106.47,139.06,112.31,129Zm8,0c5.82,10,11.43,19.69,17.07,29.39l83.46-44.18L198.72,87.78Zm18.2-117.66c-5.26,9.83-10.42,19.45-15.78,29.48L196.91,79.3c8-8.37,15.67-16.49,23.4-24.64Z" transform="translate(-0.31 -1.33)"/></svg>